HIERARCHY
ROOT root
{
	OFFSET 0.000000 0.000000 0.000000
	CHANNELS 6 Xposition Yposition Zposition Zrotation Yrotation Xrotation
	JOINT lhip
	{
		OFFSET 0.058581 -0.082280 -0.017664
		CHANNELS 3 Zrotation Yrotation Xrotation
		JOINT lknee
		{
			OFFSET 0.043451 -0.386469 0.008037
			CHANNELS 3 Zrotation Yrotation Xrotation
			JOINT lankle
			{
				OFFSET -0.014790 -0.426874 -0.037428
				CHANNELS 3 Zrotation Yrotation Xrotation
				JOINT ltoe
				{
					OFFSET 0.041054 -0.060286 0.122042
					CHANNELS 3 Zrotation Yrotation Xrotation
					End Site
					{
						OFFSET 0.000000 0.000000 0.000000
					}
				}
			}
		}
	}
	JOINT rhip
	{
		OFFSET -0.060310 -0.090513 -0.013543
		CHANNELS 3 Zrotation Yrotation Xrotation
		JOINT rknee
		{
			OFFSET -0.043257 -0.383688 -0.004843
			CHANNELS 3 Zrotation Yrotation Xrotation
			JOINT rankle
			{
				OFFSET 0.019056 -0.420046 -0.034562
				CHANNELS 3 Zrotation Yrotation Xrotation
				JOINT rtoe
				{
					OFFSET -0.034840 -0.062106 0.130323
					CHANNELS 3 Zrotation Yrotation Xrotation
					End Site
					{
						OFFSET 0.000000 0.000000 0.000000
					}
				}
			}
		}
	}
	JOINT lowerback
	{
		OFFSET 0.004439 0.124404 -0.038385
		CHANNELS 3 Zrotation Yrotation Xrotation
		JOINT upperback
		{
			OFFSET 0.004488 0.137956 0.026820
			CHANNELS 3 Zrotation Yrotation Xrotation
			JOINT chest
			{
				OFFSET -0.002265 0.056032 0.002855
				CHANNELS 3 Zrotation Yrotation Xrotation
				JOINT lowerneck
				{
					OFFSET -0.013390 0.211636 -0.033468
					CHANNELS 3 Zrotation Yrotation Xrotation
					JOINT upperneck
					{
						OFFSET 0.010113 0.088937 0.050410
						CHANNELS 3 Zrotation Yrotation Xrotation
						End Site
						{
							OFFSET 0.000000 0.000000 0.000000
						}
					}
				}
				JOINT lclavicle
				{
					OFFSET 0.071702 0.114000 -0.018898
					CHANNELS 3 Zrotation Yrotation Xrotation
					JOINT lshoulder
					{
						OFFSET 0.122921 0.045205 -0.019046
						CHANNELS 3 Zrotation Yrotation Xrotation
						JOINT lelbow
						{
							OFFSET 0.255332 -0.015649 -0.022946
							CHANNELS 3 Zrotation Yrotation Xrotation
							JOINT lwrist
							{
								OFFSET 0.265709 0.012698 -0.007375
								CHANNELS 3 Zrotation Yrotation Xrotation
								End Site
								{
									OFFSET 0.000000 0.000000 0.000000
								}
							}
						}
					}
				}
				JOINT rclavicle
				{
					OFFSET -0.082954 0.112472 -0.023707
					CHANNELS 3 Zrotation Yrotation Xrotation
					JOINT rshoulder
					{
						OFFSET -0.113228 0.046853 -0.008472
						CHANNELS 3 Zrotation Yrotation Xrotation
						JOINT relbow
						{
							OFFSET -0.260127 -0.014369 -0.031269
							CHANNELS 3 Zrotation Yrotation Xrotation
							JOINT rwrist
							{
								OFFSET -0.269108 0.006794 -0.006027
								CHANNELS 3 Zrotation Yrotation Xrotation
								End Site
								{
									OFFSET 0.000000 0.000000 0.000000
								}
							}
						}
					}
				}
			}
		}
	}
}
MOTION
Frames: 14
Frame Time: 0.033333
-2.213535 0.656433 0.966744 97.833375 1.125315 80.766081 0.378642 1.185744 18.450073 -4.642560 -16.298944 0.574905 4.279880 8.116228 -22.915545 0.000000 -0.000000 0.000000 -2.058741 3.955202 -22.968282 2.077364 -11.167419 31.203530 8.445222 -7.807951 -12.985256 0.000000 -0.000000 0.000000 -1.483601 -6.239076 15.856591 3.368577 -0.694046 -1.666749 1.328028 -3.129602 1.413267 1.854170 4.631664 -2.135375 -2.161934 -2.266483 7.644640 -27.765353 5.437808 1.774036 -58.363696 -14.265466 13.992119 11.986875 -40.711842 -0.236551 0.898747 -24.222790 -21.701441 31.965336 -8.031326 0.134133 54.159483 -8.057736 12.635376 -21.118746 19.064233 -6.026086 9.125363 8.812968 0.247647 
-2.164552 0.658935 0.955158 99.446798 0.770074 82.005151 1.697214 1.534753 21.060945 -5.685827 -17.272199 -0.493532 4.798427 6.919683 -23.797746 0.000000 -0.000000 0.000000 -2.578918 1.756793 -24.869668 2.708062 -9.171361 17.550661 9.044685 -6.674109 -9.739672 0.000000 -0.000000 0.000000 -1.797964 -6.213117 14.847018 3.123439 -1.675369 -1.449505 1.552107 -3.278980 1.064522 1.480202 5.445579 -2.146340 -0.632569 -1.977427 6.676984 -26.934569 5.035048 1.124804 -57.372579 -17.451791 14.152400 10.386107 -44.290917 -1.256173 2.008840 -24.538027 -22.582322 32.775853 -9.485489 0.031967 54.304998 -10.100204 12.134637 -23.631155 17.986927 -7.382257 7.239200 8.451330 6.785299 
-2.113923 0.663568 0.942335 101.280722 0.164123 82.755913 2.801315 2.161869 23.488656 -6.497296 -17.938669 0.456502 4.657438 5.872205 -25.222798 0.000000 -0.000000 0.000000 -3.662227 -1.890097 -26.133957 5.203629 -6.344679 7.835169 8.964394 -4.895529 -8.775760 0.000000 -0.000000 0.000000 -1.583051 -5.647504 14.473513 2.853675 -2.790035 -1.109015 1.414524 -4.169274 0.561970 1.303243 5.819450 -2.705547 -0.293220 -2.412471 6.097610 -27.050962 4.839303 0.186855 -56.451809 -20.750455 13.965715 9.424508 -46.397313 -2.156580 -0.555380 -25.841885 -23.890150 33.207267 -10.837795 -0.121711 54.614831 -11.301919 10.986812 -24.291389 16.543037 -8.944289 8.954617 7.382810 8.569894 
-2.047751 0.666813 0.931111 102.730674 0.488627 83.327714 4.972405 3.205630 25.774922 -6.770197 -19.879666 4.556719 1.580663 5.342180 -26.016029 0.000000 -0.000000 0.000000 -3.791498 -1.463839 -26.875931 5.397698 -7.600921 5.800154 9.839325 -4.424171 -9.139029 0.000000 -0.000000 0.000000 -1.200708 -6.993577 13.898752 3.157304 -2.721874 -0.498871 1.609482 -4.416599 0.575421 1.225262 5.762619 -3.619526 -0.580681 -2.760908 5.924944 -27.883126 4.122910 0.446457 -55.396681 -23.040213 13.167754 11.413561 -50.022629 -5.149090 0.140413 -25.025201 -22.861332 33.604116 -11.128940 0.629054 54.294082 -12.152975 9.779220 -24.629061 16.403912 -10.015363 9.519083 6.045613 6.728000 
-2.004016 0.668367 0.928563 102.641385 0.938231 83.271431 5.524617 2.650926 27.627453 -6.803632 -21.234557 7.118263 1.524079 5.423506 -25.331595 0.000000 -0.000000 0.000000 -3.232179 -0.142390 -28.241665 5.230735 -8.961523 13.527955 9.151576 -5.950495 -9.709991 0.000000 -0.000000 0.000000 -0.886955 -8.429378 13.819008 3.491629 -1.823911 -0.262709 1.546702 -4.123322 0.809516 0.955019 5.369951 -4.617249 -1.352296 -2.682588 6.151843 -28.971526 5.080717 0.242513 -54.619963 -23.067001 12.654801 12.198412 -52.496288 -6.495441 -0.201595 -25.238565 -23.186211 34.330495 -10.692093 0.536302 53.282338 -12.657909 10.057894 -24.631290 15.925066 -11.001632 10.034251 5.644937 6.980147 
-1.944367 0.669786 0.931958 101.907047 1.572356 84.014802 5.274558 1.394334 27.283065 -7.148008 -21.085014 14.215253 -1.797450 4.981122 -19.491063 0.000000 -0.000000 0.000000 -2.076092 2.105340 -30.148405 3.842578 -9.844643 21.060151 9.077573 -5.632994 -3.950738 0.000000 -0.000000 0.000000 0.245316 -9.777450 12.893791 3.923302 -1.131405 -0.057840 1.429029 -3.772359 0.410719 -0.043147 5.232262 -5.440096 -2.419002 -1.395915 7.041299 -30.109849 6.282550 0.502496 -55.128066 -20.833169 13.099795 15.916288 -54.441444 -10.274303 0.843673 -25.536235 -23.999405 34.925819 -9.907805 1.225940 51.960688 -12.432585 10.937506 -24.158488 14.887141 -10.147883 9.702988 6.532241 6.882153 
-1.882157 0.671144 0.941195 100.934995 2.494703 83.659385 5.030961 0.755402 23.571573 -8.444201 -17.261821 28.521220 -9.310340 4.023257 -1.895448 0.000000 -0.000000 0.000000 -0.834372 4.557152 -29.367956 3.673837 -9.820056 27.398852 4.941568 -7.326234 -4.031650 0.000000 -0.000000 0.000000 1.431025 -10.405700 12.546911 4.540587 -0.679642 1.029221 1.105428 -3.373945 -0.225514 -0.629042 5.658805 -6.337262 -2.628448 -0.643328 7.817904 -31.266305 7.273448 0.749016 -56.240956 -17.566187 13.718212 19.036638 -54.675248 -13.489610 2.236756 -24.796498 -25.348446 35.477266 -9.018550 1.445083 51.174787 -11.126989 11.302800 -24.111143 15.405280 -9.643822 8.645587 6.803383 5.315783 
-1.824229 0.671355 0.949735 99.513446 2.981190 83.143967 3.647137 -1.342215 17.514278 -8.752227 -11.361337 43.441203 -10.272054 4.357872 8.754741 0.000000 -0.000000 0.000000 0.985300 7.854706 -26.817365 3.634210 -9.743232 31.075331 0.309323 -8.502441 -7.846650 0.000000 -0.000000 0.000000 2.231300 -9.263800 12.557299 4.890390 -0.371978 1.895760 0.691705 -2.938056 -0.824454 -0.749376 4.657499 -5.489313 -2.455277 -0.329362 6.939516 -30.539556 6.681545 1.175030 -58.499064 -13.728449 13.475725 19.707247 -52.848960 -16.747399 3.842655 -24.814130 -24.483852 34.665694 -6.671113 1.882076 53.440172 -10.311344 11.147392 -24.940947 16.294803 -13.152457 4.920601 5.670351 6.917689 
-1.770112 0.673053 0.958816 98.209917 2.541059 82.650012 2.412223 -2.832789 10.483740 -9.904952 -6.379860 55.841383 -5.935707 9.520238 10.666301 0.000000 -0.000000 0.000000 2.863473 7.575510 -22.649612 3.824321 -7.399307 32.194703 -2.654978 -9.139150 -11.895248 0.000000 -0.000000 0.000000 2.222652 -6.765929 12.190659 4.905640 -0.347457 3.047884 0.149866 -2.401765 -0.296760 -0.277500 3.892149 -6.672560 -1.715874 -0.718836 7.713496 -30.917201 6.095085 1.209836 -58.356834 -11.311430 13.483575 15.724012 -50.517962 -12.335630 6.350765 -23.684777 -27.003156 35.191173 -4.914984 2.046964 54.111639 -7.750476 11.876636 -24.519446 17.852492 -12.987809 0.975466 6.662410 2.829036 
-1.704144 0.675042 0.972385 96.290828 1.737438 82.266183 1.935549 -3.180505 0.749488 -8.889108 -1.813322 64.222512 -2.803786 9.326633 0.425036 0.000000 -0.000000 0.000000 4.294970 6.279875 -15.016640 3.598882 -5.505502 28.759437 -2.503239 -7.050498 -15.221468 0.000000 -0.000000 0.000000 1.708138 -3.342193 12.572938 4.537809 -0.075271 2.729530 -0.022048 -1.331833 -0.079939 0.940544 3.002816 -5.276353 -1.658418 -2.452513 7.743782 -31.216730 6.472496 1.766734 -58.577109 -7.923249 12.357321 11.712265 -46.456859 -4.408216 3.552472 -23.632275 -26.174817 35.213046 -2.891177 3.268785 54.492619 -3.611221 12.334259 -23.456955 20.431277 -10.028360 -3.264913 7.522301 -1.980227 
-1.650726 0.676433 0.983628 94.171809 0.670769 81.596726 1.650397 -3.111364 -5.820751 -6.999878 1.762869 64.648238 -1.634459 9.242594 -5.103867 0.000000 -0.000000 0.000000 4.675894 4.681056 -8.282413 4.041453 -1.477639 25.399841 -2.302496 -6.198856 -16.530188 0.000000 -0.000000 0.000000 0.836838 -0.508286 13.550621 3.955614 -0.208411 1.978519 0.052145 -0.539244 0.027486 1.416281 2.175217 -3.856619 -1.331268 -2.735483 7.647109 -31.175642 7.154777 2.231986 -58.536150 -3.400416 11.064435 10.329174 -44.388699 1.347401 2.379613 -23.134691 -23.239720 34.429586 -0.733671 3.581970 54.853435 -0.415793 12.680965 -22.963978 23.446853 -8.300744 -5.588374 8.169672 -2.641443 
-1.598122 0.677594 0.991704 91.746134 -0.341885 81.371943 2.127616 -3.392823 -11.561916 -5.579916 5.954580 60.274088 -0.302507 9.665492 -9.074183 0.000000 -0.000000 0.000000 4.300573 3.510320 -2.171611 4.201510 1.434298 21.704529 -1.631623 -4.785650 -18.303621 0.000000 -0.000000 0.000000 0.153118 2.124902 13.761098 3.396848 -0.304480 1.891355 -0.183041 0.183579 -0.190196 2.330503 2.288545 -2.864930 -1.418643 -3.084994 8.197708 -31.203782 8.198202 2.493359 -58.198181 1.381751 9.792347 10.028487 -42.236940 5.202719 0.829574 -23.183270 -20.529879 33.734041 0.663906 3.587047 54.725819 3.301737 12.986458 -22.978844 26.991131 -6.132724 -5.136656 8.845439 -3.211950 
-1.544239 0.679182 0.995245 89.306025 -1.491121 80.440364 2.218470 -3.188812 -14.405709 -6.047395 7.771983 50.723512 0.700549 11.638650 -11.485425 0.000000 -0.000000 0.000000 2.426955 1.234031 5.229160 4.612690 3.344326 17.178587 -0.926453 -0.940010 -19.931305 0.000000 -0.000000 0.000000 -0.201384 4.565415 14.775236 2.602400 -0.388684 0.600237 -0.693485 1.228182 1.645978 3.434357 2.905232 -3.442198 -1.952891 -4.487179 8.327667 -30.924062 9.347962 2.250132 -56.762489 5.058221 12.018586 8.853862 -39.758774 7.624402 5.412919 -21.269863 -21.994190 33.560599 0.725460 1.949686 53.395835 8.303372 14.285260 -21.145555 30.527218 -5.120846 -7.734601 10.192596 -3.670840 
-1.489558 0.681994 0.992882 86.841321 -2.580741 80.190237 2.507810 -3.379035 -16.235008 -5.855970 10.248540 37.778525 0.736878 12.052472 -12.985919 0.000000 -0.000000 0.000000 -0.483772 0.220787 11.540478 5.991154 5.195327 13.285282 -0.340400 1.179949 -20.810709 0.000000 -0.000000 0.000000 -0.424020 6.397710 14.667725 1.658183 -0.343751 1.234742 -1.001640 1.974065 1.380417 3.905609 3.270441 -3.100696 -2.358748 -5.048232 8.056899 -30.775358 10.255722 2.491052 -56.248121 9.323788 11.309084 9.504300 -36.712584 8.312195 3.881898 -21.342420 -20.782678 32.752068 1.698173 1.784290 52.404170 12.695401 14.171812 -20.077209 35.349606 -5.511037 -7.567199 10.613677 -5.650940 
